<svg width="178" height="114" viewBox="0 0 178 114" fill="none" xmlns="http://www.w3.org/2000/svg">
<path d="M178 19.5851C177.481 19.3657 176.97 19.1525 176.459 18.921C176.099 18.854 175.697 18.7869 175.228 18.7199C174.072 18.8479 172.732 18.5737 171.232 18.263C170.487 18.1046 169.691 17.9401 168.862 17.8182C168.033 17.7025 167.162 17.6355 166.266 17.6598C168.209 17.4892 162.162 16.9592 165.302 16.8922C163.946 16.4048 157.815 16.3682 155.16 15.6859C155.62 15.6493 155.536 15.5457 156.19 15.5762C152.337 15.3508 153.643 14.9974 150.821 14.6623L150.838 15.0766C149.715 15.0766 149.464 14.7476 148.484 14.6867C149.23 14.839 150.796 15.235 149.908 15.2898C148.593 15.2106 147.479 15.1985 146.08 15.0096C146.097 14.8573 147.094 14.9121 147.764 14.9548C147.764 14.9548 144.749 14.5161 144.589 14.2968C145.703 14.309 147.102 14.4978 148.107 14.4003C144.171 13.7545 147.822 14.2298 145.98 13.6571C146.189 13.9251 145.31 13.8703 144.12 13.6997C142.948 13.5169 141.457 13.2367 140.385 13.1209C140.226 12.9016 141.884 13.2976 142.445 13.2428C141.499 12.8772 140.661 12.6457 139.84 12.4812C139.438 12.402 139.003 12.335 138.567 12.2741C138.132 12.2131 137.696 12.1705 137.244 12.1217C136.968 12.0974 136.7 12.073 136.415 12.0547C134.321 10.7814 132.085 9.83096 130.049 9.03893C129.455 8.79523 128.86 8.5759 128.299 8.35048C127.738 8.13115 127.21 7.89964 126.699 7.6864C125.685 7.25992 124.831 6.7908 124.136 6.29121C121.205 5.56621 117.662 4.90212 113.114 3.90904C113.055 4.05526 112.284 3.92123 111.564 3.79938C110.844 3.68971 110.174 3.6166 110.324 3.84202C112.418 4.46346 114.47 4.79246 116.414 5.13973C117.385 5.3225 118.315 5.51746 119.211 5.74898C120.091 5.99877 120.928 6.29731 121.682 6.67504C123.608 7.13807 123.131 6.69941 124.061 6.81517C124.89 7.07105 125.677 7.36349 126.272 7.6011C126.866 7.83871 127.26 8.05195 127.31 8.17989C125.376 7.58892 125.007 7.68031 124.538 7.69858C124.061 7.71077 123.474 7.67421 121.071 6.92483C121.313 7.13198 122.402 7.54018 123.659 7.96056C124.89 8.41141 126.28 8.87444 127.093 9.2339C126.506 9.17297 126.908 9.51415 127.905 10.0259C126.573 9.78831 123.801 9.02066 122.268 8.78305C122.846 8.81351 121.983 8.44187 122.436 8.4967C122.436 8.4967 122.109 8.42359 121.632 8.31393C121.389 8.25909 121.112 8.19817 120.802 8.12506C120.501 8.06413 120.174 7.99712 119.848 7.9301C119.194 7.80216 118.558 7.66203 118.064 7.57064C117.569 7.48534 117.243 7.42442 117.243 7.42442C115.794 6.82735 115.476 6.49836 116.388 6.56538C115.006 6.15718 113.063 5.77335 111.48 5.46872C109.897 5.1641 108.674 4.93258 108.75 4.69498C106.865 4.38426 107.142 4.51829 107.921 4.72544C108.7 4.94477 109.964 5.29204 110.098 5.38343L109.772 5.34078C109.772 5.34078 110.76 5.51746 111.732 5.7307C112.217 5.83428 112.703 5.93785 113.072 6.01096C113.256 6.04751 113.407 6.08407 113.507 6.10844C113.616 6.13281 113.675 6.14499 113.675 6.14499C113.725 6.3034 113.482 6.29731 113.072 6.23029C112.661 6.16327 112.083 6.01705 111.472 5.86474C110.869 5.70633 110.216 5.56011 109.671 5.47482C109.127 5.38952 108.691 5.35297 108.49 5.45045C108.021 5.85864 106.681 5.54183 105.081 5.09099C104.286 4.87775 103.423 4.62187 102.577 4.42081C101.731 4.22585 100.91 4.06135 100.198 4.01261C100.198 4.01261 101.044 3.9456 101.899 3.87858C102.326 3.84202 102.753 3.81156 103.08 3.78719C103.398 3.76891 103.616 3.75673 103.616 3.75673C103.616 3.75673 103.44 3.73845 103.172 3.71408C102.904 3.68971 102.544 3.66534 102.183 3.63488C101.463 3.58005 100.751 3.52521 100.751 3.52521C102.443 3.47647 102.552 2.98298 105.148 3.09265C104.168 2.93424 103.088 2.74537 101.966 2.59306C100.852 2.41638 99.6957 2.27016 98.5818 2.13003C97.4678 1.98381 96.3957 1.89242 95.4409 1.80103C94.4861 1.72183 93.6401 1.68528 92.9952 1.67309C92.0236 1.36237 91.5881 1.13086 92.0655 0.911527C87.9782 1.14914 85.7502 0.454589 82.2157 0.491144C78.5053 0.807955 85.9596 0.801862 83.2543 1.18569C82.6931 1.10649 81.9058 1.10649 81.1352 1.14304C80.5322 1.1796 79.9375 1.24052 79.4685 1.28317C79.7281 1.2588 80.038 1.24662 80.4066 1.24052C80.6913 1.24052 81.0012 1.22834 81.3363 1.23443C81.6713 1.23443 82.0231 1.24662 82.3832 1.25271C83.849 1.27708 85.4989 1.38674 86.8474 1.45985C84.8289 1.43548 85.0551 1.78276 84.4939 1.92288C84.4939 1.92288 85.3315 1.94725 86.169 1.97162C86.5878 1.98381 87.0066 1.99599 87.3165 2.01427C87.6264 2.02646 87.8358 2.03864 87.8358 2.03864C87.6013 2.44075 83.7317 2.00818 82.1906 2.27016C83.1622 1.87414 82.6177 1.86805 83.6061 1.47204C82.8774 1.52078 82.0649 1.55733 81.2106 1.59389C80.3563 1.63654 79.4601 1.67309 78.5807 1.69746C77.7012 1.73402 76.8385 1.76448 76.0344 1.77666C75.2304 1.78885 74.4933 1.80713 73.8735 1.78885C72.3994 1.74011 75.0712 1.50859 75.8418 1.35019C75.1382 1.13695 72.9606 1.70355 72.3492 1.44158C72.7596 1.15523 74.1332 1.28317 75.1382 1.13695C75.1382 1.13695 74.6022 1.16741 73.8065 1.21615C73.0024 1.25271 71.9388 1.338 70.8667 1.4233C69.7946 1.49032 68.7476 1.63044 67.9519 1.70965C67.1562 1.79494 66.6285 1.84977 66.6285 1.84977C66.595 1.69746 68.6974 1.39284 70.0458 1.29536C68.7392 1.35628 67.6253 1.47204 66.4694 1.67309C65.322 1.88633 64.1242 2.1544 62.7171 2.66617C61.2681 2.81848 59.7019 2.9708 58.6047 3.03781C57.5158 3.11702 56.9044 3.14139 57.3483 2.92815C56.0752 3.28151 56.9965 3.24496 57.0635 3.39118C55.1455 3.72627 54.1237 4.04917 53.3112 4.3477C52.4988 4.64014 51.9041 4.95086 50.7818 5.21893L52.5909 5.09099C48.8637 5.65759 51.9544 5.74289 48.6795 6.27903C49.0647 5.87692 48.7046 5.59667 48.0178 5.41998C47.6157 5.816 45.5051 6.13281 44.1315 6.49836C45.1198 6.5471 41.3424 7.55236 43.6876 7.22946C42.9254 7.49144 42.2721 7.72905 41.669 7.91182C41.066 8.10069 40.5216 8.253 40.0023 8.39922C39.483 8.54544 38.9888 8.69166 38.503 8.86225C38.0089 9.03284 37.5398 9.25826 37.0373 9.53243C38.4946 9.13641 34.6083 10.7083 35.9484 10.489C35.2281 10.7448 34.5413 10.952 33.9383 11.1287C33.3436 11.3114 32.8243 11.4516 32.4055 11.5369C31.5763 11.7075 31.1659 11.6648 31.4507 11.3785C32.4641 11.0251 34.1309 10.5438 33.8713 10.3671C33.8713 10.3671 33.7875 10.3976 33.6451 10.4463C33.5027 10.5011 33.3017 10.5803 33.0504 10.6778C32.5646 10.8667 31.9114 11.1226 31.2581 11.3724C30.6047 11.6222 29.9598 11.878 29.4656 12.073C28.9882 12.2741 28.6616 12.4081 28.6616 12.4081C27.288 12.7919 25.5877 13.4012 25.1438 13.1879C24.4654 13.7058 23.2258 14.1749 22.028 14.6258C21.7265 14.7415 21.4334 14.8512 21.1486 14.9609C20.8722 15.0766 20.6126 15.1985 20.3697 15.3142C19.8839 15.5457 19.4986 15.7833 19.2808 16.027C20.0179 15.5092 20.7884 15.1741 21.4669 14.9548C22.1537 14.7354 22.7316 14.6136 23.0834 14.4917L22.3463 14.8877C22.4636 14.839 22.5892 14.7903 22.7651 14.7232C22.7651 14.7232 22.3296 15.0888 21.8857 15.4543C21.6679 15.631 21.4585 15.826 21.291 15.9661C21.1319 16.1062 21.023 16.2037 21.023 16.2037C22.1369 15.826 22.1621 15.7102 22.2709 15.5092C22.3798 15.3142 22.5809 15.0461 24.0633 14.4003C25.5458 14.0774 24.2392 14.8999 22.941 15.6798C22.2877 16.0697 21.6511 16.4657 21.3496 16.7094C21.0565 16.947 21.09 17.0262 21.8103 16.8008C24.0885 15.9783 23.3263 15.7041 24.9847 14.7415L24.5073 14.9365C24.5073 14.9365 24.7501 14.8146 25.1187 14.6258C25.3029 14.5283 25.5123 14.4247 25.7468 14.309C25.9814 14.1993 26.2327 14.0774 26.4755 13.9556C27.4723 13.4804 28.4773 13.0052 28.4773 13.0052C28.7956 13.0905 27.6481 13.7424 27.6481 13.7424C30.1441 12.7005 31.6936 12.2375 33.2598 11.7379C33.6535 11.6161 34.0471 11.482 34.4659 11.3602C34.8847 11.2322 35.3286 11.1043 35.8144 10.9642C36.2918 10.8179 36.8111 10.6535 37.3891 10.4768C37.6738 10.3854 37.9753 10.2879 38.2936 10.1904C38.6119 10.0868 38.9469 9.98327 39.3071 9.8797C39.0809 9.91016 38.6035 9.8797 38.503 9.73348C38.3941 9.58117 38.6538 9.3131 39.9018 8.88053C41.6607 8.18598 42.0543 8.42359 43.6038 8.0093C42.716 8.3322 42.0794 8.89881 40.7393 9.0694L41.0576 9.41667C40.0609 9.85533 39.4746 10.166 39.0558 10.4097C38.6454 10.6717 38.4109 10.8606 38.1261 11.0556C37.833 11.2566 37.4979 11.4577 36.8865 11.7379C36.585 11.878 36.2081 12.0364 35.7307 12.2314C35.4961 12.3228 35.2365 12.4264 34.9517 12.5421C34.667 12.6579 34.3654 12.7858 34.022 12.926C33.9885 13.1087 33.0002 13.6083 31.6433 14.1932C30.9565 14.4735 30.2111 14.8268 29.4322 15.1497C28.6532 15.4787 27.8492 15.7894 27.1037 16.0758L28.7118 15.7285C27.3717 16.5632 27.1707 16.5388 26.8441 16.551C26.5174 16.5571 26.0819 16.6058 24.323 17.6233C23.3263 17.7269 22.0197 18.0132 21.1653 18.0741C20.311 18.1411 19.9174 18.001 20.8136 17.3187C20.1184 17.605 19.5488 17.8609 19.0463 18.0985C18.5521 18.3422 18.1417 18.5798 17.7313 18.8113C16.9189 19.2804 16.1399 19.7252 14.9673 20.3284C13.1749 20.7 15.3191 19.5668 14.6993 19.3414C13.0074 20.2613 10.9889 21.5225 12.463 21.0716L9.07924 22.6191C8.9201 22.5887 10.0759 21.9794 10.5366 21.754C9.19649 22.3328 6.96857 23.7889 6.39065 24.3007C6.63354 24.1423 7.38735 23.6549 7.79776 23.5269C6.55816 24.3311 4.33022 25.7872 4.25484 25.9761C6.03048 24.7515 6.60841 25.0561 8.42593 23.7402C8.35055 23.929 8.19142 24.3068 7.06908 24.8307C8.97873 24.1423 10.6287 23.204 11.5836 23.0822C9.96705 23.6427 9.32213 24.3982 9.05411 24.5931C10.4026 23.9778 12.8902 22.5826 13.6524 22.0343C13.9455 22.1927 15.1851 21.5347 16.1902 21.0046C17.1115 20.5233 17.8402 20.1517 17.4549 20.5721C17.9323 20.2004 19.4902 19.4328 20.445 19.1159C20.5037 19.3231 18.0747 20.6695 17.1869 21.4006C12.3709 24.1362 16.9859 21.0534 15.696 21.5164C15.696 21.5164 14.7412 22.0099 13.7948 22.5034C12.8483 23.003 11.9018 23.5086 11.9018 23.5086C12.3457 23.3685 10.6622 24.587 13.1163 23.271C12.664 23.6975 11.8851 24.2641 10.947 24.8368C10.0089 25.4156 8.92847 25.9822 7.84801 26.4087C7.51298 26.7681 8.92848 25.9822 9.37239 25.7629C9.04574 26.1162 7.07744 27.81 10.2518 26.2259C9.34725 26.6768 11.5668 25.2328 9.83304 25.9456C11.0308 25.2267 14.5653 23.6488 13.4513 24.5687C13.8115 24.3555 14.247 24.0935 14.7244 23.8072C15.2019 23.5269 15.7044 23.2284 16.207 22.9299C16.7095 22.6374 17.2037 22.345 17.6476 22.083C18.0915 21.8332 18.4935 21.6139 18.795 21.4433C19.3311 21.4616 17.79 22.0404 17.2539 22.4546C17.2539 22.4546 17.5219 22.3084 17.924 22.0952C18.326 21.8819 18.862 21.6017 19.3981 21.3214C19.9341 21.0412 20.4702 20.7548 20.8722 20.5477C21.2826 20.3405 21.5506 20.2065 21.5506 20.2065C21.5506 20.2065 21.1821 20.304 20.822 20.3954C20.4618 20.4989 20.0933 20.5964 20.0933 20.5964C20.9308 20.237 21.6846 19.9019 22.3547 19.5424C23.0248 19.1891 23.6278 18.8357 24.2141 18.4823C25.3867 17.8 26.4504 17.0993 27.7319 16.4413C27.6816 16.685 27.1121 17.0689 26.3499 17.4953C25.5877 17.9279 24.6329 18.4031 23.8456 18.8905C25.8557 18.5493 24.7669 18.1899 27.5895 17.0323C28.0083 16.9287 28.1758 16.9775 28.0753 17.1602L30.0771 15.9417C30.6299 15.759 30.5377 15.8686 30.3367 15.9905C31.9449 15.0949 31.8527 14.9913 31.9197 14.8451C31.9951 14.6989 32.2548 14.51 34.8428 13.4377C31.5428 14.4674 32.2966 14.6684 29.6583 15.7163C28.804 15.8991 29.4656 15.4848 30.4288 14.9548C30.6717 14.8268 30.9314 14.6867 31.191 14.5527C31.4507 14.4247 31.7103 14.2968 31.9616 14.1749C32.4474 13.9373 32.8578 13.7302 33.0253 13.6205C35.6804 12.7127 36.3505 13.1757 39.483 11.7379C37.2551 12.7188 39.6002 12.1096 36.2918 13.255C34.5664 14.0713 37.3807 13.0783 37.9 13.1575C38.7292 12.7919 37.0708 12.9747 39.5416 12.1949L39.4746 12.2801C39.4746 12.2801 39.7091 12.1705 40.0609 12.006C40.421 11.8537 40.8985 11.6465 41.3675 11.4394C42.3307 11.0251 43.2855 10.6169 43.2855 10.6169C43.7797 10.5011 44.2571 10.3427 44.768 10.2148C45.2789 10.0808 45.7815 9.93453 46.2924 9.77613C47.3142 9.4715 48.3361 9.13032 49.3328 8.8257C50.3378 8.54544 51.3094 8.27128 52.214 8.07023C52.6663 7.96665 53.0935 7.87527 53.5039 7.80825C53.9143 7.73514 54.2996 7.69249 54.6597 7.68031C54.6597 7.68031 54.4587 7.61329 54.2577 7.54018C54.065 7.46707 53.864 7.40614 53.864 7.40614C55.1036 7.13198 56.6196 6.82735 58.0351 6.52273C58.3869 6.44962 58.7387 6.37651 59.0737 6.3034C59.4087 6.23029 59.7438 6.18155 60.0537 6.12062C60.6818 6.00487 61.2346 5.90129 61.6785 5.80991C61.5026 5.95613 61.0001 6.10844 60.3133 6.26684C59.9699 6.34605 59.5846 6.41916 59.1742 6.51664C58.7638 6.61412 58.3366 6.72378 57.9011 6.82735C58.4706 6.72987 59.0151 6.61412 59.5679 6.51664C60.1123 6.43134 60.6567 6.33386 61.1844 6.24247C62.2397 6.0536 63.2532 5.85864 64.2164 5.6515C64.6938 5.54183 65.1712 5.45654 65.6319 5.37124C66.0925 5.28595 66.5448 5.20065 66.9803 5.10927C67.8514 4.93258 68.6722 4.7559 69.426 4.57922C67.106 4.55485 66.7793 4.62187 64.5681 4.68279C66.0004 4.21367 66.9217 4.1893 67.9519 4.19539C68.9821 4.21367 70.1128 4.20148 72.0393 3.90295C72.2151 4.29896 70.9169 4.3538 71.9471 4.65842C72.3408 4.55485 72.8014 4.45737 73.2956 4.37817C73.7981 4.30506 74.3426 4.23804 74.8954 4.17711C75.9926 4.03698 77.1317 3.95169 78.0362 3.77501C78.5472 3.9456 78.3713 4.14056 77.5756 4.31724C77.1819 4.40863 76.6291 4.49392 75.9256 4.57313C75.2304 4.67061 74.3844 4.7559 73.3961 4.8351C72.6339 4.81683 71.855 4.85947 71.0844 4.93258C70.6991 4.96914 70.3139 5.01788 69.937 5.0788C69.5601 5.13973 69.1831 5.20065 68.8062 5.26158C67.3154 5.51137 65.8915 5.74289 64.6268 5.74289C64.6268 5.74289 64.7273 5.74289 64.8697 5.74289C65.0121 5.74898 65.2047 5.75507 65.4057 5.76726C65.791 5.77944 66.1846 5.79772 66.1846 5.79772C65.4476 5.91348 64.7775 6.01096 64.1661 6.13281C63.5463 6.24247 62.9767 6.34605 62.4156 6.44353C61.8544 6.54101 61.31 6.64458 60.7488 6.75424C60.1877 6.87 59.6097 6.97357 59.0151 7.15635L59.0988 7.07715L58.0016 7.71686L59.3417 7.45488C58.4874 7.86308 55.8658 8.76477 55.0534 8.93536C59.1323 8.08241 59.191 7.35131 61.0755 6.69941C62.0219 6.55319 62.8428 6.47399 63.5631 6.42525C64.2918 6.3826 64.9283 6.34605 65.5313 6.35214C66.7291 6.35214 67.7509 6.32168 68.9737 5.99268C69.225 6.15718 71.3692 6.10234 69.7192 6.48617C67.6588 6.84563 66.126 6.77861 65.9836 7.07105C68.1781 6.79689 67.3824 7.05887 70.7075 6.60802C71.2687 6.18764 73.7228 5.60276 76.1266 5.1641C78.6644 4.81073 81.9979 4.73762 84.0332 4.8351C81.4619 4.88384 78.9324 5.33469 79.5941 5.5723C81.0599 5.12754 84.586 5.77335 83.8238 5.26767C84.5693 5.27986 85.4403 5.29204 86.3282 5.30423C87.216 5.3286 88.1289 5.37734 88.9581 5.42608C90.6081 5.54793 91.9231 5.72461 92.0571 5.95613C89.268 5.96222 86.5794 5.63322 84.2091 5.72461C84.8624 5.73679 85.499 5.85864 85.1137 5.95613C85.1137 5.95613 84.8959 5.95612 84.5693 5.94394C84.2426 5.93175 83.8071 5.93176 83.3716 5.93176C82.5005 5.93176 81.6294 5.93176 81.6294 5.93176C82.9528 6.02314 83.4804 6.10234 84.0919 6.15108C84.7116 6.2181 85.4152 6.23029 87.0904 6.23638C86.881 6.19373 86.4622 6.10844 86.7805 6.09625C87.618 6.10844 88.6734 6.15108 89.5109 6.17546L89.5863 6.58975C90.2145 6.57147 90.9767 6.60193 91.8477 6.66286C92.7104 6.74206 93.682 6.83345 94.7122 6.9492C95.7424 7.06496 96.8313 7.1929 97.9452 7.32085C98.5064 7.38787 99.0759 7.4366 99.6371 7.49144C100.207 7.55236 100.776 7.6011 101.346 7.63766L100.919 7.66812C101.806 7.80216 102.502 7.87527 103.105 7.90573C103.708 7.93619 104.235 7.90573 104.763 7.89964C105.818 7.88136 106.949 7.82653 108.884 8.1738C107.703 8.13724 108.155 8.40531 108.281 8.62464C109.269 8.70385 109.981 8.89881 110.676 9.13032C111.02 9.24608 111.363 9.36793 111.74 9.49587C112.109 9.62991 112.502 9.77004 112.954 9.91016C110.886 9.15469 114.613 9.86142 113.088 9.34965C113.105 9.24608 113.365 9.2278 113.767 9.27045C113.968 9.28873 114.211 9.32528 114.479 9.36793C114.738 9.41667 115.032 9.48369 115.333 9.5507C115.936 9.69693 116.606 9.85533 117.234 10.0442C117.569 10.1417 117.888 10.2392 118.189 10.3305C117.678 10.3305 117.243 10.3427 117 10.4097C116.841 10.3732 116.682 10.3366 116.523 10.3001C115.258 10.0381 114.211 9.82487 115.249 10.361C114.537 10.2757 113.851 10.2087 113.851 10.2087C112.552 10.3549 112.728 10.5803 112.586 10.7692C112.452 10.9642 112.008 11.1104 109.487 11.1835C107.184 11.1287 107.284 10.9337 107.619 10.69C107.954 10.4524 108.532 10.1965 107.175 10.1051L106.061 10.428C106.061 10.428 105.492 10.3915 104.922 10.3671L103.783 10.3184L104.126 10.2757C102.778 10.4219 100.307 10.4829 100.282 10.3305C100.491 10.1965 101.957 10.1112 102.158 9.98327C101.605 10.0808 100.768 10.1173 99.7795 10.1295C98.7912 10.1478 97.6688 10.16 96.5381 10.1782C95.4074 10.2087 94.2767 10.2696 93.2967 10.3671C92.3084 10.4768 91.4708 10.6535 90.9181 10.9032C89.5696 10.8911 86.8475 11.2018 87.1406 10.9093C86.5794 11.153 85.0802 11.2993 83.5139 11.4577C82.7266 11.543 81.9309 11.6222 81.2106 11.7135C80.4987 11.8049 79.8705 11.9207 79.4434 12.0365C79.6444 11.8841 77.9106 11.939 76.604 12.2558C78.4299 12.0913 77.3494 12.4081 76.1936 12.7919C75.3728 12.7919 73.8735 13.0478 72.4832 13.261C71.0928 13.4865 69.8113 13.6875 69.4009 13.5474C67.0641 14.2663 68.0608 14.3699 67.6504 14.772C66.8296 14.8024 65.2047 15.1254 63.8562 15.3447C62.5161 15.5884 61.4608 15.7346 61.7874 15.3995C63.1275 15.1193 66.1176 14.5466 65.4308 14.3699C62.8427 14.772 64.3839 14.7293 62.3486 15.2777C62.4658 15.1558 60.8075 15.3447 61.1425 15.1132C59.9448 15.4726 58.2361 15.9052 56.4689 16.3378C59.2747 15.7712 54.911 17.142 56.628 16.8556C56.628 16.8556 57.231 16.5876 57.8341 16.3256C58.1356 16.1915 58.4371 16.0575 58.6716 15.9722C58.8978 15.8747 59.0486 15.8138 59.0486 15.8138C62.1978 14.9609 59.8359 15.8869 61.0838 15.6859C59.7186 16.0758 58.7638 16.3621 58.0518 16.6424C57.3315 16.9165 56.829 17.1359 56.3432 17.3674C55.8574 17.5928 55.3968 17.8365 54.7351 18.1229C54.4084 18.2691 54.0315 18.4153 53.5876 18.6042C53.1437 18.7869 52.6328 19.0002 52.013 19.2317C51.5188 19.3475 50.8404 19.5363 50.2122 19.713C49.5841 19.8897 49.0145 20.0542 48.7632 20.1517C50.3881 19.5181 49.8186 19.2439 48.7967 19.5181C47.5655 20.2065 46.3175 20.6086 45.1114 20.9803C44.5 21.1569 43.9053 21.3275 43.3106 21.4981C42.9337 21.6139 42.5736 21.7418 42.2134 21.8637C43.3442 21.5286 42.6741 22.0769 42.1464 22.412C41.0576 22.9481 40.4211 23.2832 40.0023 23.4599C39.5919 23.6366 39.4327 23.6671 39.3322 23.6549C39.1396 23.6244 39.2066 23.399 38.168 23.7645C34.7591 25.3912 31.9365 26.7072 29.3651 28.0537C26.8022 29.4001 24.4654 30.7587 22.1872 32.5377C22.1872 32.5377 22.8572 32.2209 23.5357 31.9041C23.8707 31.7457 24.2057 31.5934 24.457 31.4776C24.7083 31.3558 24.8758 31.2827 24.8758 31.2827L25.3113 30.4968C26.375 30.0276 26.4755 30.247 26.2159 30.6856C25.9646 31.1304 25.3364 31.7762 24.9512 32.2148C24.7585 32.2514 23.9461 32.7814 23.2928 33.1835C22.6562 33.5917 22.1956 33.8842 22.6646 33.3968C22.6646 33.3968 22.0029 33.9268 21.3496 34.4569C21.0146 34.7189 20.7047 34.9991 20.4702 35.2063C20.2357 35.4134 20.0765 35.5474 20.0765 35.5474C20.3613 35.45 20.9225 35.0539 21.2742 34.8224C21.6428 34.597 21.7852 34.5239 21.2324 35.06C20.7298 35.3586 19.7582 36.0227 19.1217 36.437C18.4935 36.8573 18.1668 37.0157 18.8872 36.242C18.192 36.8086 17.4214 37.4727 16.9356 37.9966C16.4498 38.5267 16.1986 38.8922 16.4582 38.8313C14.3727 40.7444 16.1399 38.3317 16.9524 37.3813C15.2186 38.8679 15.0846 38.4779 15.4866 37.9418C15.4866 37.9418 15.3359 38.0758 15.1181 38.2769C14.9087 38.484 14.5988 38.7399 14.3224 39.0202C13.7696 39.5746 13.2084 40.129 13.2084 40.129C13.5853 39.5868 13.4178 39.4954 13.7948 38.9532C12.9656 39.6355 12.3793 40.2935 11.86 40.9393C11.3323 41.579 10.7879 42.17 10.0424 42.7488L9.90842 43.5104C9.3975 44.016 8.99548 44.473 8.63533 44.8751C8.27517 45.2772 7.9569 45.6184 7.69725 45.9291C7.17796 46.5627 6.7843 47.044 6.40739 47.5192C5.70383 48.4818 5.02541 49.4201 3.79418 51.6195L4.51451 50.9737C4.1711 51.8327 3.95332 52.4237 3.71042 52.8806C3.4759 53.3376 3.21625 53.6544 2.97336 54.026C2.73046 54.3916 2.45407 54.7998 2.14417 55.4029C2.06879 55.5552 1.97665 55.7197 1.90127 55.8964C1.82589 56.0792 1.75052 56.2742 1.67514 56.4874C1.516 56.9139 1.35687 57.4196 1.18936 58.0105C1.05535 58.6868 0.929701 59.296 0.837568 59.8322C0.728684 60.3683 0.711922 60.8314 0.69517 61.203C0.678419 61.9402 0.770554 62.2996 1.0637 62.1473C1.02182 62.5312 1.00508 62.8419 0.963198 63.1039C0.92132 63.3658 0.862688 63.573 0.804058 63.7497C0.670047 64.1091 0.510919 64.365 0.368532 64.7062C0.452289 65.3154 0.594681 66.272 0.661686 67.3016C0.720316 67.8195 0.762198 68.3495 0.770574 68.8735C0.770574 69.1354 0.770558 69.3974 0.753806 69.6472C0.753806 69.897 0.737065 70.1468 0.711938 70.3844C0.653308 70.0676 0.586301 69.763 0.552798 69.4644C0.519295 69.172 0.485797 68.8857 0.452294 68.5993C0.427167 68.313 0.393659 68.0327 0.368532 67.7464C0.343405 67.46 0.318288 67.1737 0.326664 66.869C0.0251393 67.0335 0.00837568 68.0754 0 69.3182C0 69.9397 0.0753771 70.6098 0.100504 71.2435C0.117255 71.5664 0.125647 71.8771 0.142398 72.1695C0.167525 72.462 0.175882 72.7361 0.175882 72.9859C0.27639 73.321 0.427169 73.8571 0.611434 74.4969C0.820826 75.1488 1.07208 75.9225 1.38198 76.7023C1.98503 78.2681 2.79747 79.907 3.45078 81.0524C3.45915 80.4736 3.66855 80.2604 4.00358 80.4492C4.33023 80.6381 4.82439 81.2108 5.44419 82.2039C5.22643 82.0759 5.41906 82.7949 5.77922 83.727C5.96348 84.19 6.1645 84.7079 6.38227 85.2014C6.59166 85.6949 6.79269 86.164 6.94345 86.5235C6.60842 86.2188 6.8597 87.0535 7.00208 87.6079C7.07747 87.8821 7.11933 88.0832 7.01883 88.0344C6.91832 87.9857 6.6503 87.6871 6.20638 86.9438C6.03049 86.4869 5.98862 86.1274 5.92161 85.7375C5.84623 85.3476 5.68708 84.9394 5.33531 84.3545C5.36881 85.1526 5.95511 87.1814 7.01044 89.2468C6.95181 89.2224 6.84292 89.1432 6.71729 89.0214C6.59165 88.8995 6.44928 88.735 6.28176 88.5462C5.95511 88.1563 5.58657 87.6506 5.3018 87.1266C5.75408 87.6567 5.66197 87.2972 5.73735 87.1754C5.11755 86.2859 4.83277 85.8898 4.69039 85.8045C4.53963 85.7193 4.55636 85.9447 4.62337 86.2676C4.75738 86.9134 5.15941 87.9613 4.80763 87.742C4.97515 87.9857 5.18455 88.3025 5.39394 88.6193C5.61171 88.9361 5.80436 89.259 6.00538 89.521C6.31528 89.9353 6.53304 90.179 6.49954 89.9779C6.86807 91.038 7.99879 92.3723 9.35565 93.6578L9.90006 94.1757C10.1011 94.3463 10.2937 94.5168 10.4863 94.6813C10.679 94.8519 10.8716 95.0164 11.0559 95.1809C11.2402 95.3393 11.4244 95.4734 11.6003 95.6196C12.3039 96.1862 12.9153 96.7345 13.3257 97.2463C13.4765 97.2767 12.4546 96.1496 14.0544 97.2463C15.2354 98.0566 15.7212 98.477 16.0143 98.7938C16.1651 98.9522 16.2656 99.0862 16.3744 99.2263C16.4917 99.3665 16.6174 99.5188 16.8435 99.6955C17.2874 99.8661 18.46 100.506 19.4735 101.085C19.7247 101.231 19.976 101.365 20.2021 101.481C20.4283 101.602 20.6293 101.706 20.7968 101.791C21.1235 101.968 21.291 102.072 21.1737 102.035C22.0867 102.449 21.7516 102.084 21.5171 101.755C21.2826 101.426 21.1486 101.139 22.4217 101.688C22.8991 101.828 23.3682 102.023 23.8456 102.248C24.3314 102.455 24.8255 102.699 25.3197 102.949C25.8139 103.205 26.308 103.467 26.8022 103.723C27.2963 103.979 27.8324 104.186 28.3433 104.387C29.4489 105.02 28.8124 104.807 27.7738 104.387C27.5141 104.277 27.221 104.161 26.9362 104.046C26.6514 103.918 26.3583 103.784 26.0902 103.656C25.5458 103.406 25.06 103.193 24.7836 103.101C24.7836 103.101 25.2024 103.296 25.839 103.582C26.1573 103.723 26.5258 103.893 26.9195 104.07C27.3215 104.234 27.757 104.411 28.1925 104.582C29.0552 104.929 29.9179 105.282 30.5712 105.532C31.2329 105.77 31.6768 105.922 31.6768 105.922C32.64 106.409 32.3469 106.403 31.5596 106.172C31.1659 106.056 30.6466 105.892 30.1022 105.684C29.5662 105.471 29.005 105.227 28.5108 105.002C28.8291 105.173 29.1641 105.349 29.5159 105.514C29.8677 105.684 30.2195 105.855 30.588 105.995C31.325 106.288 32.0789 106.556 32.774 106.787C33.1258 106.903 33.4608 107.006 33.7791 107.098C34.0974 107.189 34.3989 107.25 34.6753 107.311C35.2197 107.427 35.6469 107.488 35.9065 107.488C36.3421 107.652 36.7358 107.799 37.0959 107.92C37.4561 108.054 37.7995 108.164 38.1429 108.268C38.8213 108.481 39.483 108.688 40.3038 109.005C39.4076 108.834 38.905 108.889 38.2852 108.895C37.9753 108.895 37.6403 108.895 37.2048 108.828C36.7776 108.761 36.25 108.645 35.5799 108.438C31.2329 106.927 37.4058 108.584 33.754 107.256L33.2347 107.439C32.5144 107.055 31.8108 106.805 31.0654 106.568C30.6885 106.452 30.32 106.336 29.9263 106.208C29.541 106.074 29.1474 105.928 28.737 105.758C27.8826 105.294 29.0217 105.739 29.6583 105.959C26.6766 104.734 24.5407 103.509 22.1369 102.693C22.3547 102.833 22.5808 102.979 22.8154 103.126C23.0499 103.272 23.3095 103.4 23.5692 103.54C24.0885 103.814 24.6329 104.094 25.1857 104.368C26.2829 104.941 27.489 105.41 28.5946 105.892C29.7002 106.379 30.7806 106.769 31.6601 107.128C32.5395 107.482 33.2263 107.811 33.6284 108.048C33.6284 108.048 34.1644 108.201 34.9769 108.426C35.3789 108.536 35.8479 108.67 36.3505 108.81C36.6017 108.877 36.8614 108.95 37.1294 109.023C37.3974 109.09 37.6654 109.151 37.9418 109.218C39.0307 109.474 40.1112 109.736 40.9236 109.931C41.7444 110.108 42.2972 110.211 42.2972 110.211C42.3307 110.138 41.6355 109.852 41.2502 109.632C41.0576 109.517 40.9487 109.419 41.0325 109.383C41.1246 109.346 41.4094 109.37 42.0376 109.468C42.4396 109.779 43.2437 110.138 44.366 110.54C44.9272 110.747 45.5721 110.93 46.2924 111.119C47.0043 111.308 47.7916 111.509 48.6208 111.71C47.532 111.076 54.1655 112.35 52.5742 111.698C50.9325 111.619 50.2625 111.125 50.0615 111.052C53.3112 111.625 50.631 110.753 52.415 111.052C53.1437 111.21 53.6965 111.296 54.1069 111.375C54.5173 111.448 54.7854 111.509 54.9529 111.551C55.2963 111.637 55.2544 111.667 55.2125 111.698C55.1623 111.728 55.112 111.765 55.4386 111.85C55.6062 111.899 55.8574 111.954 56.2595 112.033C56.6615 112.118 57.2059 112.203 57.943 112.307C57.6163 112.319 57.164 112.331 56.6196 112.331C56.0836 112.319 55.4387 112.307 54.7435 112.276C54.0399 112.246 53.2694 112.222 52.4653 112.149C51.6696 112.075 50.8404 111.978 50.0112 111.874C50.0866 111.99 50.9074 112.136 51.8706 112.307C52.1135 112.35 52.3648 112.398 52.6077 112.441C52.8589 112.484 53.1102 112.526 53.3531 112.569C53.7551 112.642 54.132 112.721 54.4419 112.807C52.9511 112.356 56.0333 112.654 54.5173 112.325C55.1204 112.392 55.7402 112.453 56.3683 112.526C56.9965 112.593 57.6498 112.618 58.3031 112.666C58.9564 112.709 59.6181 112.746 60.2965 112.788C60.975 112.825 61.6618 112.831 62.357 112.855C63.0522 112.874 63.7473 112.892 64.4593 112.91H66.6118C68.0692 112.928 69.4679 112.892 70.9002 112.892C70.4395 113.196 68.0608 113.306 65.858 113.318C65.3136 113.324 64.7943 113.343 64.3252 113.355C63.8646 113.355 63.4625 113.367 63.1526 113.398C62.5412 113.446 62.2983 113.562 62.7422 113.787C63.4793 113.818 64.0321 113.836 64.4844 113.818C64.9367 113.8 65.2968 113.763 65.6235 113.739C66.2935 113.684 66.8798 113.641 68.0524 113.714C69.9537 114.135 74.7111 113.891 78.5639 113.8L76.8553 113.623C77.584 113.532 78.6225 113.525 79.6946 113.513C80.7667 113.501 81.8723 113.513 82.7266 113.513L82.2911 113.611C82.2911 113.611 82.7099 113.568 83.1203 113.532C83.539 113.483 83.9578 113.434 83.9578 113.434C84.2175 113.44 84.2845 113.458 84.2761 113.483C86.1104 113.233 90.8343 113.178 94.3437 112.782C94.3186 112.63 93.4475 112.685 92.367 112.794C91.831 112.855 91.2363 112.916 90.6751 112.977C90.114 113.026 89.5779 113.069 89.1591 113.081C88.9246 113.062 87.9866 113.062 87.3081 113.032C86.6297 113.002 86.2025 112.928 86.9815 112.788C88.0703 112.727 89.0838 112.648 90.0553 112.557C91.0269 112.471 91.965 112.344 92.9198 112.234C93.3972 112.179 93.8747 112.118 94.3688 112.057C94.863 111.996 95.3572 111.929 95.8848 111.862C96.4041 111.795 96.9401 111.734 97.5013 111.673C98.0625 111.619 98.6488 111.551 99.2602 111.484C99.2602 111.484 98.8665 111.503 98.4729 111.521C98.0792 111.539 97.6856 111.551 97.6856 111.551C98.4478 111.381 99.3607 111.235 100.374 111.125C100.885 111.07 101.413 111.015 101.966 110.954C102.518 110.894 103.088 110.82 103.666 110.741C107.954 110.394 100.659 111.576 103.272 111.417C102.468 111.673 101.321 111.789 100.324 111.905C99.3272 112.021 98.4981 112.136 98.3054 112.35C98.3054 112.35 98.4813 112.362 98.7409 112.374C99.0006 112.386 99.344 112.404 99.6957 112.417C100.391 112.447 101.094 112.478 101.094 112.478C102.2 112.234 103.389 112.106 104.503 112.015C105.065 111.972 105.601 111.929 106.095 111.893C106.589 111.85 107.041 111.789 107.435 111.71C107.435 111.71 106.999 111.728 106.564 111.746C106.346 111.759 106.128 111.765 105.961 111.765C105.802 111.765 105.693 111.771 105.693 111.771C105.944 111.411 107.569 111.405 108.373 111.332L107.108 111.028C105.877 111.186 104.864 111.387 103.925 111.576C102.987 111.765 102.133 111.917 101.203 111.868C102.292 111.716 103.029 111.558 103.616 111.417C104.202 111.277 104.629 111.162 105.09 111.04C106.011 110.808 107.024 110.528 109.629 110.126C109.922 110.278 108.649 110.351 108.155 110.577C109.068 110.504 109.956 110.303 110.986 110.047C111.497 109.925 112.042 109.797 112.645 109.669C112.946 109.608 113.264 109.553 113.591 109.492C113.918 109.431 114.261 109.37 114.621 109.316C114.228 109.425 113.767 109.559 113.34 109.681C112.904 109.797 112.502 109.919 112.209 110.016C111.631 110.223 111.531 110.357 112.636 110.29C112.636 110.29 112.988 110.132 113.348 109.974C113.524 109.894 113.7 109.815 113.834 109.748C113.968 109.687 114.052 109.645 114.052 109.645C115.392 109.431 114.906 109.681 115.45 109.578C116.405 109.419 116.255 109.352 116.255 109.255C116.255 109.206 116.28 109.151 116.497 109.078C116.715 108.999 117.126 108.913 117.863 108.761C118.332 108.731 119.337 108.578 118.943 108.761C120.635 108.371 121.029 108.249 121.38 108.091C121.732 107.939 122.042 107.774 123.558 107.275C120.761 108.018 120.417 107.512 123.257 106.69C123.767 106.568 124.245 106.434 124.706 106.288C125.166 106.141 125.61 106.007 126.037 105.873C126.464 105.733 126.875 105.605 127.268 105.477C127.671 105.355 128.047 105.203 128.424 105.075C129.17 104.813 129.882 104.576 130.602 104.375C131.306 104.149 132.001 103.954 132.738 103.808C132.738 103.808 133.131 103.589 133.517 103.369C133.718 103.266 133.902 103.144 134.044 103.059C134.187 102.973 134.279 102.912 134.279 102.912C133.86 103.296 134.472 103.065 135.343 102.687C135.778 102.492 136.281 102.267 136.75 102.059C137.202 101.834 137.629 101.627 137.931 101.505C138.266 101.572 136.909 102.242 135.452 102.876C134.028 103.546 132.495 104.173 132.696 104.448C135.292 103.515 134.312 104.106 133.584 104.576C133.927 104.435 134.204 104.32 134.405 104.216C134.614 104.113 134.756 104.027 134.865 103.948C135.075 103.802 135.108 103.717 135.091 103.643C135.058 103.497 134.823 103.418 135.334 103.052C135.359 103.089 135.661 102.985 136.08 102.827C136.499 102.663 137.035 102.461 137.504 102.248C138.45 101.84 139.221 101.542 138.576 102.047C139.137 101.785 139.572 101.56 139.916 101.353C140.268 101.145 140.519 100.944 140.77 100.762C141.264 100.396 141.683 100.073 142.504 99.6833C142.395 99.9331 142.278 100.238 142.588 100.311C142.688 100.128 144.799 99.1045 145.192 98.8913C144.765 99.0436 145.636 98.2211 143.911 99.3543C143.961 99.2324 144.254 99.0131 144.656 98.7572C145.05 98.4952 145.578 98.2089 146.055 97.8982C147.018 97.295 147.923 96.7345 147.755 96.6736C148.015 96.7528 148.936 96.1374 150.025 95.3698C150.302 95.1748 150.586 94.9799 150.863 94.7666C151.139 94.5534 151.416 94.3402 151.692 94.133C152.236 93.7187 152.772 93.3349 153.225 93.0364C152.739 92.8292 152.035 93.4628 151.307 94.1635C150.586 94.8702 149.749 95.5708 149.146 95.5404C149.665 95.0895 150.419 94.529 151.24 93.8528C151.667 93.5238 152.119 93.1704 152.588 92.7987C153.049 92.4149 153.518 92.0189 153.995 91.6168C154.238 91.4158 154.481 91.2086 154.724 91.0076C154.967 90.8004 155.193 90.5811 155.428 90.3678C155.888 89.9353 156.349 89.5027 156.801 89.0701C157.237 88.6315 157.639 88.1867 158.024 87.7542C158.409 87.3216 158.786 86.9073 159.079 86.4869C161.734 83.8732 159.431 86.6575 160.285 86.2737C158.091 88.8508 157.153 89.2956 155.034 91.4036C155.712 90.8857 156.433 90.2399 157.203 89.5575C157.597 89.2224 157.949 88.8508 158.317 88.4853C158.677 88.1197 159.046 87.7481 159.406 87.3764C160.084 86.627 160.713 85.8716 161.265 85.2014C161.785 84.5129 162.203 83.8976 162.505 83.4163C162.781 83.0812 163.033 82.7888 163.25 82.5207C163.485 82.2526 163.703 82.0211 163.92 81.8018C164.348 81.3692 164.792 81.0219 165.177 80.632C165.973 79.8583 166.844 78.9992 167.731 77.1897C167.12 77.5553 167.095 77.4517 166.324 78.4996C166.743 77.5309 167.556 76.4952 168.066 75.4656C168.184 74.7832 166.986 76.9643 167.539 75.5021C167.891 74.9721 168.552 73.8084 168.661 74.0947L168.569 74.3384C168.912 73.4672 169.164 72.8823 169.423 72.4498C169.675 72.0233 169.909 71.7491 170.093 71.475C170.286 71.2069 170.462 70.951 170.613 70.5611C170.696 70.3722 170.772 70.1407 170.83 69.8665C170.864 69.7264 170.897 69.5802 170.931 69.4157C170.956 69.2451 170.973 69.0684 170.99 68.8674C170.864 68.9771 170.805 69.2086 170.722 69.4949C170.629 69.7813 170.529 70.1346 170.328 70.4941C170.085 70.75 170.052 70.3905 170.127 69.7995C170.169 69.5071 170.219 69.1476 170.278 68.7699C170.336 68.3983 170.403 68.0144 170.487 67.6611C170.571 67.8073 170.671 67.5027 170.805 67.0396C170.931 66.5766 171.04 65.9552 171.199 65.4617C171.484 65.1509 171.366 65.7785 171.191 66.5461C171.115 66.93 170.973 67.3443 170.889 67.6976C170.805 68.051 170.747 68.3434 170.772 68.4775C170.772 68.4775 170.998 67.8012 171.224 67.1249C171.341 66.7837 171.408 66.4426 171.492 66.1867C171.559 65.9308 171.601 65.7602 171.601 65.7602L171.4 66.3268C171.4 66.3268 171.484 65.5713 171.567 64.8098C171.618 64.432 171.618 64.0543 171.634 63.7679C171.643 63.4816 171.66 63.2927 171.66 63.2927C171.425 65.3886 170.981 64.2371 171.09 63.3293C171.191 62.8114 171.316 62.2997 171.4 61.8183C171.475 61.337 171.559 60.8923 171.643 60.5206C171.727 60.149 171.81 59.8505 171.911 59.6555C172.003 59.4666 172.087 59.3813 172.204 59.4484C171.978 59.3143 171.894 58.6015 171.861 57.6937C171.844 57.4683 171.861 57.2246 171.827 56.9809C171.81 56.7372 171.794 56.4813 171.768 56.2315C171.727 55.7258 171.685 55.2202 171.651 54.7632C171.551 56.7677 171.283 55.0252 171.082 54.4586C171.082 54.4586 171.115 53.7092 171.149 52.9537C171.165 52.576 171.191 52.1983 171.174 51.918C171.165 51.6378 171.165 51.4489 171.165 51.4489C171.35 52.2287 171.417 52.5821 171.475 52.6735C171.534 52.771 171.576 52.6065 171.618 52.3628C171.676 51.8815 171.668 51.0955 171.903 51.455C172.053 51.6743 172.196 51.9607 172.279 52.2957C172.363 52.6308 172.413 53.0147 172.455 53.4229C172.489 53.825 172.522 54.2636 172.531 54.6962C172.531 55.1288 172.514 55.5735 172.514 55.9939C172.606 55.5796 172.665 55.1897 172.698 54.8302C172.732 54.4708 172.698 54.1296 172.673 53.8128C172.606 53.1731 172.48 52.6126 172.321 52.0642C172.137 51.522 171.944 50.992 171.785 50.4193C171.702 50.1329 171.643 49.8344 171.576 49.5237C171.5 49.2069 171.442 48.8779 171.4 48.5184C171.509 48.5062 171.634 48.555 171.777 48.7621C171.844 48.8657 171.919 49.0119 171.986 49.2069C172.053 49.4018 172.129 49.6516 172.162 49.9684C172.204 49.7064 171.928 49.0667 171.626 48.2564C171.475 47.8543 171.333 47.3974 171.174 46.9343C170.998 46.4713 170.856 45.9839 170.755 45.4965C170.78 46.0266 170.713 47.1537 169.917 45.3137C169.917 45.3137 169.901 45.1553 169.867 44.9177C169.842 44.6801 169.767 44.3694 169.708 44.0465C169.582 43.4129 169.457 42.7793 169.457 42.7793C169.214 42.0603 168.954 41.6643 168.787 41.4206C168.611 41.1769 168.485 41.0916 168.36 41.0246C168.092 40.8967 167.84 40.8296 167.128 39.7391C167.128 39.7391 167.162 39.8366 167.204 39.9828C167.246 40.129 167.296 40.3301 167.346 40.525C167.447 40.9149 167.539 41.311 167.539 41.311C167.405 41.2805 167.237 41.0733 167.07 40.787C166.894 40.5007 166.718 40.1168 166.5 39.7635C166.081 39.0445 165.671 38.3439 165.42 38.3866C165.805 39.0689 166.19 39.5685 166.567 40.0864C166.919 40.6164 167.254 41.1647 167.547 41.9141C167.447 42.2492 167.154 41.7984 166.81 41.1708C166.634 40.854 166.45 40.4946 166.249 40.1717C166.04 39.8488 165.83 39.5624 165.663 39.3735C165.286 38.6242 165.034 38.1002 164.833 37.6981C164.624 37.3021 164.482 37.0279 164.364 36.7781C164.247 36.5283 164.147 36.2907 164.013 35.98C163.879 35.6693 163.719 35.2733 163.418 34.7128C163.577 34.6336 163.87 34.7859 164.222 35.06C164.557 35.3403 164.959 35.7363 165.353 36.1201C165.746 36.504 166.14 36.8756 166.475 37.1071C166.81 37.3326 167.07 37.43 167.229 37.2351C166.751 36.5162 166.19 35.7302 165.629 34.9199C165.051 34.1096 164.406 33.2993 163.828 32.5012C162.597 30.9293 161.466 29.4793 160.805 28.5471C160.235 27.9684 159.791 27.5602 159.44 27.286C159.071 27.0179 158.803 26.8839 158.61 26.8291C158.225 26.7316 158.141 26.9753 158.116 27.2373C157.128 26.3173 156.759 25.8116 156.232 25.1597C156.232 25.1597 156.315 25.2206 156.433 25.3059C156.55 25.3973 156.709 25.5192 156.86 25.641C157.17 25.8908 157.48 26.1345 157.48 26.1345C157.111 25.7872 156.768 25.4582 156.416 25.1536C156.064 24.8551 155.712 24.5626 155.386 24.2824C154.716 23.728 154.121 23.1918 153.434 22.6922C152.772 22.1805 152.111 21.6687 151.39 21.1143C151.03 20.8462 150.653 20.5721 150.251 20.2796C149.858 19.9872 149.447 19.6765 149.003 19.3596C146.893 17.9888 147.395 18.8174 147.621 19.3475C147.621 19.3475 147.479 19.2561 147.27 19.1159C147.06 18.9758 146.784 18.787 146.499 18.6103C145.93 18.2508 145.36 17.8913 145.36 17.8913L145.636 18.1716C144.891 18.1046 143.283 16.9714 141.817 16.0819C142.32 16.1672 142.822 16.2525 143.325 16.3317C145.352 16.6363 147.353 16.9348 149.338 17.2334L146.348 17.0567C148.685 17.2212 152.705 17.8061 153.995 18.0193L153.66 18.001C157.823 18.9636 158.56 18.1046 161.726 19.0124L161.064 18.9819C163.627 19.2743 165.629 19.6338 167.631 19.9628C169.624 20.304 171.593 20.6269 174.105 20.8218C174.524 20.901 174.884 20.9803 175.203 21.0473C175.973 21.0473 176.735 21.029 177.506 21.0168C177.598 20.4989 177.732 20.0055 177.883 19.5181L178 19.5851ZM142.63 22.0586C142.378 21.7723 142.269 21.5529 142.521 21.6261C143.132 22.2719 145.184 23.6671 144.883 23.7767C144.883 23.7767 144.707 23.6671 144.522 23.5574C144.347 23.4477 144.162 23.3441 144.162 23.3441C144.615 23.6853 144.991 24.0082 145.343 24.2885C145.687 24.5748 146.022 24.8185 146.281 25.044C146.801 25.4948 147.203 25.8177 147.538 26.0492C147.906 26.1528 148.023 26.0797 148.224 26.0858C148.325 26.0858 148.442 26.1162 148.618 26.2015C148.71 26.2442 148.811 26.299 148.936 26.3721C149.054 26.4513 149.188 26.5488 149.355 26.6768C150.653 28.0415 150.209 27.8648 149.64 27.5967C149.07 27.3226 148.4 26.9631 149.204 27.9074C149.204 27.9074 149.389 28.0476 149.657 28.2608C149.916 28.474 150.285 28.7482 150.62 29.0467C151.298 29.6438 151.985 30.2348 151.985 30.2348C151.985 30.2348 152.052 30.4054 152.119 30.582C152.153 30.6673 152.186 30.7526 152.211 30.8197L152.245 30.9293C152.63 31.4289 153.024 31.9102 153.417 32.3732C153.618 32.6048 153.819 32.8302 154.02 33.0556C154.213 33.281 154.406 33.5125 154.59 33.738C154.975 34.1888 155.361 34.6275 155.763 35.06C156.156 35.4987 156.516 35.9435 156.902 36.3882C158.443 38.155 159.9 40.0315 161.115 42.3101C160.997 42.365 160.788 42.2005 160.537 41.9141C160.26 41.6278 159.934 41.2135 159.607 40.7565C158.979 39.8427 158.183 38.7948 157.831 38.2525C158.041 39.0202 158.652 39.8244 159.205 40.72C159.49 41.1647 159.8 41.6217 160.068 42.0908C160.311 42.5599 160.52 43.0412 160.671 43.5286C160.763 43.748 160.872 43.9551 160.972 44.1562C161.073 44.3572 161.157 44.5461 161.257 44.7289C161.441 45.0883 161.642 45.3929 161.818 45.6366C162.178 46.124 162.488 46.3495 162.572 46.1789C163.51 48.3722 162.781 47.8178 162.781 48.1163C162.882 48.1955 162.991 48.3052 163.091 48.4453C163.183 48.5854 163.267 48.7621 163.351 48.951C163.51 49.3348 163.669 49.81 163.82 50.3279C163.904 50.5838 163.946 50.8518 164.004 51.1199C164.055 51.3941 164.105 51.6621 164.163 51.9302C164.214 52.1983 164.272 52.4663 164.322 52.7161C164.364 52.972 164.398 53.2218 164.431 53.4533L164.096 53.5569C164.096 53.5569 164.281 54.2697 164.465 54.9826C164.599 55.7015 164.725 56.4265 164.725 56.4265C164.733 55.6771 165.068 56.3473 165.286 56.3412V57.0906C165.487 56.3777 165.545 55.604 165.503 54.8181C165.462 54.4281 165.395 54.026 165.328 53.6239C165.294 53.4229 165.252 53.2218 165.21 53.0208C165.177 52.8197 165.127 52.6187 165.068 52.4176C164.959 52.0155 164.85 51.6134 164.75 51.2174C164.658 50.8214 164.582 50.4254 164.473 50.0354C164.381 49.6455 164.314 49.2556 164.272 48.8718C164.255 48.6768 164.247 48.4818 164.247 48.293C164.23 48.1041 164.23 47.9152 164.23 47.7203C164.649 48.5793 164.44 47.3669 164.859 48.2381C165.018 48.9875 165.009 49.1459 164.9 49.2434C165.286 49.6516 165.839 50.8275 165.411 49.2434C166.174 49.2129 166.743 52.442 167.12 54.6718C167.045 55.1227 166.927 55.2323 166.835 55.1288C166.785 55.08 166.743 54.9765 166.693 54.8363C166.634 54.6962 166.576 54.5195 166.517 54.3246C166.274 53.5386 166.023 52.4237 165.738 51.9911C165.788 52.1983 165.855 52.3932 165.922 52.5943C165.981 52.7953 166.04 52.9903 166.098 53.2035C166.207 53.63 166.291 54.1052 166.266 54.7206L165.696 54.4464C165.738 54.6353 165.771 54.7998 165.805 54.9521C165.83 55.1044 165.847 55.2323 165.872 55.3481C165.914 55.5735 165.956 55.7441 165.989 55.8538C166.065 56.0853 166.132 56.1097 166.199 56.067C166.341 55.9817 166.509 55.5918 166.785 55.933C166.969 56.1401 167.061 56.4143 167.103 56.7311C167.153 57.0418 167.12 57.3952 167.061 57.7425C166.944 58.4431 166.768 59.1315 166.76 59.5519C166.76 59.5519 166.76 59.491 166.76 59.4057C166.751 59.3204 166.743 59.1986 166.726 59.0889C166.701 58.8574 166.676 58.6259 166.676 58.6259C166.308 60.9959 166.785 61.5625 166.358 63.7131C166.358 63.7131 166.215 63.9507 166.04 64.1883C165.872 64.4259 165.705 64.6636 165.705 64.6636C165.847 64.3406 165.973 64.0421 166.04 63.7679C166.107 63.4938 166.14 63.244 166.165 63.0125C166.199 62.5494 166.165 62.1717 166.115 61.8244C165.989 61.136 165.771 60.5938 165.998 59.8383C165.545 61.7696 165.286 61.5259 165.101 60.679C165.001 60.2526 164.951 59.6738 164.842 59.1315C164.733 58.5832 164.624 58.0714 164.524 57.779C164.54 58.5954 164.549 59.3752 164.415 60.0637C164.356 60.4049 164.289 60.7217 164.214 61.008C164.138 61.2944 164.055 61.5503 163.937 61.7635C164.013 62.3667 163.979 62.9759 163.895 63.5913C163.778 64.2005 163.594 64.8098 163.426 65.4129C163.351 65.7175 163.242 66.0161 163.142 66.3146C163.049 66.6132 162.957 66.9117 162.89 67.2102C162.807 67.5087 162.773 67.8134 162.706 68.1058C162.647 68.3983 162.614 68.6968 162.614 68.9953C162.053 70.2016 162.656 67.8499 162.153 69.1415C161.173 71.4932 160.034 73.9668 158.795 76.4465C157.965 77.6589 157.882 77.3725 157.446 77.6406C157.195 78.0001 156.91 78.3412 156.659 78.6641C156.408 78.9931 156.156 79.3099 155.93 79.6207C155.712 79.9375 155.461 80.2238 155.235 80.5102C155.009 80.8026 154.791 81.0829 154.582 81.357C154.18 81.9175 153.736 82.4293 153.334 82.9472C153.133 83.203 152.932 83.465 152.731 83.7209L152.094 84.4703C151.885 84.7201 151.667 84.9699 151.449 85.2197C151.34 85.3476 151.223 85.4756 151.114 85.6035C150.997 85.7253 150.88 85.8533 150.754 85.9812C150.268 86.4808 149.766 87.0048 149.196 87.547C148.61 88.071 147.982 88.6193 147.278 89.1981C146.909 89.4722 146.533 89.7586 146.131 90.0571C145.93 90.2033 145.72 90.3557 145.511 90.508C145.301 90.6603 145.084 90.8126 144.849 90.9588C144.849 90.9588 144.908 90.904 144.983 90.8248C145.067 90.7456 145.167 90.6298 145.259 90.5141C145.461 90.2886 145.653 90.0571 145.653 90.0571C144.933 90.5933 144.187 91.0319 143.601 91.4584C143.308 91.6716 143.048 91.8727 142.831 92.0676C142.613 92.2626 142.42 92.4393 142.294 92.616C141.641 92.7988 140.946 93.1765 140.175 93.6395C139.388 94.0782 138.576 94.6387 137.696 95.1748C137.252 95.4368 136.8 95.6988 136.356 95.9608C136.13 96.0887 135.904 96.2106 135.686 96.3385C135.46 96.4604 135.225 96.5639 134.999 96.6736C134.539 96.8868 134.086 97.0818 133.642 97.2402C133.207 97.4047 132.771 97.5265 132.353 97.5996C131.398 97.9652 130.703 98.282 130.141 98.5684C129.563 98.8303 129.128 99.074 128.726 99.3055C128.324 99.5371 127.955 99.7869 127.478 100.024C127 100.262 126.448 100.512 125.686 100.804C125.602 100.664 126.364 100.079 124.731 100.561C119.663 102.303 114.521 103.564 109.118 104.576C103.708 105.587 98.0122 106.3 91.6635 106.818C91.764 106.751 92.3921 106.653 92.7104 106.61C91.6802 106.677 90.6584 106.769 89.6366 106.836C88.6147 106.903 87.5929 106.982 86.5794 107.061C84.5525 107.195 82.5424 107.354 80.5657 107.451C76.6208 107.664 72.8266 107.78 69.3674 107.591C68.6974 107.64 67.4578 107.634 66.4946 107.677C65.5314 107.713 64.8697 107.786 65.4392 107.951C67.0055 108.054 67.1981 108.408 67.0808 108.621C66.3186 108.621 65.7072 108.621 65.1963 108.603C64.6938 108.584 64.3001 108.536 63.9902 108.499C63.3704 108.42 63.0773 108.322 62.8427 108.231C62.6082 108.134 62.4407 108.042 62.0806 107.951C61.7204 107.878 61.1676 107.774 60.1625 107.683C59.5846 107.348 60.2379 107.335 61.0252 107.348C61.8209 107.372 62.7757 107.348 62.8092 107.128C62.8092 107.128 62.4491 107.122 61.9131 107.11C61.377 107.092 60.6567 107.043 59.9364 107C59.2161 106.958 58.4874 106.933 57.9514 106.879C57.4069 106.83 57.0468 106.799 57.0468 106.799C56.2595 106.635 55.4638 106.507 54.6681 106.385C53.8808 106.239 53.1018 106.105 52.3313 105.977C51.946 105.91 51.5607 105.843 51.1838 105.776C50.8069 105.697 50.4467 105.611 50.0866 105.532C49.3663 105.362 48.6711 105.179 48.0094 104.965C49.1988 105.288 48.5706 104.673 50.5054 105.313C50.1871 105.27 50.3797 105.349 50.0698 105.307C50.6478 105.435 51.1168 105.55 51.5188 105.623C51.9209 105.697 52.2391 105.745 52.5072 105.782C53.0432 105.855 53.3531 105.879 53.6546 105.892C53.9561 105.904 54.2409 105.91 54.71 105.952C55.0534 105.983 55.4889 106.013 56.1087 106.08C55.4051 106.001 54.6681 105.916 53.9227 105.788C53.4034 105.709 52.8757 105.617 52.3396 105.538C51.812 105.453 51.2759 105.368 50.7566 105.252C49.7097 105.039 48.6711 104.825 47.7079 104.6C46.7531 104.35 45.8652 104.106 45.0863 103.881C45.2203 104.009 45.1198 104.039 44.8769 104.015C44.634 103.991 44.2571 103.911 43.8467 103.796C43.0091 103.57 41.9789 103.272 41.4848 103.247L41.3089 103.156C41.2167 103.321 39.2568 102.766 38.637 102.614L38.1429 101.944C36.7776 101.535 38.3774 102.297 37.0289 101.864C36.5515 101.712 35.7726 101.438 34.8764 101.109C34.6502 101.024 34.4241 100.938 34.1812 100.853C33.955 100.756 33.7205 100.652 33.486 100.555C33.0169 100.347 32.5312 100.134 32.0621 99.927C31.1157 99.5188 30.2865 99.0497 29.6667 98.678C29.0469 98.3003 28.6448 98.0078 28.6365 97.8555C27.6063 97.3438 26.9278 97.033 26.2159 96.7345C26.04 96.6553 25.8641 96.5761 25.6798 96.4969C25.5877 96.4543 25.4956 96.4116 25.4034 96.369C25.3113 96.3202 25.2276 96.2654 25.1354 96.2166C24.7669 96.0034 24.3565 95.7597 23.8874 95.4429C24.1471 95.449 24.658 95.7049 24.7836 95.7049C24.2811 95.3759 23.7534 95.0347 23.2174 94.6935C22.941 94.529 22.7065 94.3341 22.4468 94.1513C22.1872 93.9685 21.9359 93.7796 21.6763 93.5908C20.5958 92.8658 19.6577 92.0311 18.6778 91.2269C18.4181 91.0258 18.2255 90.8248 18.0245 90.6298C17.8234 90.4288 17.6057 90.246 17.4214 90.0267C17.2288 89.8195 17.0445 89.6063 16.8603 89.3991C16.676 89.1859 16.5085 88.9666 16.341 88.7533C15.9892 88.3329 15.7044 87.8699 15.4029 87.4434C15.1265 86.9987 14.8668 86.5661 14.6407 86.1335C13.6943 84.8054 12.9321 83.4894 12.2788 82.2953C11.9354 81.7043 11.6506 81.1255 11.349 80.5955C11.0726 80.0593 10.7795 79.5658 10.5199 79.1028C10.6706 79.5049 10.9638 80.2969 11.081 80.8148C11.215 81.3266 11.1899 81.5763 10.7125 80.8818C10.143 80.1263 9.74928 78.853 9.28024 77.5919C9.6404 77.8356 8.7526 74.3324 9.61529 76.8364C9.88332 76.4647 9.48965 75.1183 9.2635 73.8571C9.07086 72.5594 8.87822 71.3409 9.2635 71.347C9.20487 71.2008 9.14626 70.8596 9.096 70.4088C9.04575 69.9579 8.98711 69.4035 8.97873 68.8247C8.97036 68.2459 8.92011 67.6428 8.91174 67.0945C8.91174 66.5522 8.87821 66.0648 8.81121 65.7176C8.97872 65.5713 8.99548 66.0648 8.99548 66.5949C8.99548 66.8629 8.99548 67.1371 9.00386 67.3443C9.02061 67.5514 9.06249 67.6915 9.11275 67.6915C9.11275 67.6915 9.11276 67.588 9.096 67.4296C9.096 67.2772 9.096 67.0701 9.096 66.8568C9.096 66.4426 9.10436 66.0283 9.10436 66.0283H9.31376C9.39751 65.2484 9.49802 64.6209 9.49802 64.0909C9.49802 63.8289 9.49801 63.5852 9.48964 63.3597C9.48964 63.1343 9.48964 62.9272 9.46451 62.7322C9.41426 61.9402 9.27189 61.2883 9.48128 60.3561L9.53992 60.4414C9.53992 60.4414 9.59853 60.1185 9.65716 59.8017C9.68229 59.6372 9.7158 59.4788 9.74092 59.3631C9.77443 59.2473 9.79118 59.162 9.79118 59.162C9.79118 59.162 9.79118 59.2595 9.79956 59.4057C9.81631 59.5519 9.83304 59.753 9.85817 59.9479C9.90005 60.3379 9.93357 60.7278 9.93357 60.7278C10.0508 60.2282 10.1178 59.7834 10.1848 59.3631C10.2602 58.9427 10.3272 58.5528 10.3858 58.1507C10.4193 57.9496 10.4445 57.7425 10.478 57.5353C10.5199 57.3282 10.5785 57.1149 10.6371 56.8956C10.7628 56.4508 10.8884 55.9634 11.1145 55.4151L11.3909 55.2445L11.8348 53.8981C11.7595 54.1235 11.8013 54.221 11.9186 54.093C11.927 53.7519 12.0945 53.3376 12.2788 52.8684C12.3793 52.6369 12.4798 52.3932 12.597 52.1495C12.7143 51.9058 12.8567 51.6621 12.9991 51.4123C13.2754 50.9188 13.5351 50.4254 13.7948 49.9867C14.046 49.548 14.247 49.152 14.3392 48.8413C14.6574 48.4392 15.1349 48.1468 15.5536 47.7873C15.9808 47.4339 16.3493 47.0135 16.6257 46.4104L17.0278 46.8612C16.7514 47.1841 16.5503 47.4461 16.3744 47.6594C16.1986 47.8665 16.0562 48.031 15.9389 48.1468C15.7044 48.3905 15.5537 48.5001 15.4029 48.6159C15.2521 48.7316 15.1181 48.8596 14.9003 49.1337C14.691 49.414 14.3727 49.8405 13.9455 50.5777C14.2052 50.3401 14.5402 50.0537 14.8668 49.7186C15.0344 49.548 15.2102 49.3653 15.3861 49.1703C15.4699 49.0728 15.562 48.9753 15.6542 48.8718C15.7463 48.7682 15.8468 48.6646 15.9473 48.561C16.3493 48.1407 16.7514 47.6776 17.1953 47.2024C17.6559 46.7272 18.1166 46.2215 18.594 45.7098C20.5456 43.6688 22.8991 41.5059 24.9428 39.8609C26.442 38.4292 28.8291 36.7842 31.0319 35.389C33.2179 33.9756 35.2281 32.7997 35.7725 32.0382L35.605 32.5073C35.605 32.5073 35.7139 32.4524 35.8982 32.355C36.0908 32.2636 36.3505 32.1174 36.6771 31.959C37.3388 31.6421 38.2015 31.2096 39.0977 30.7953C40.865 29.9606 42.6909 29.1869 42.6909 29.1869C45.6475 27.7186 48.8219 26.4148 51.8539 25.2328C52.616 24.9282 53.3447 24.6601 54.065 24.3921C54.777 24.1118 55.4973 23.8681 56.1925 23.6183C56.8793 23.3624 57.5661 23.1309 58.2194 22.8933C58.8811 22.6496 59.5092 22.4181 60.1206 22.1988C60.1206 22.1988 60.4976 22.1561 60.8745 22.1196C61.2514 22.0769 61.6283 22.0404 61.6283 22.0404C64.0488 20.9132 68.6303 19.7313 73.0695 18.787C77.5002 17.8182 81.7802 17.075 83.5223 16.3256C86.7888 16.1123 82.6513 16.8313 82.3832 17.0567C83.5726 16.9409 85.1053 16.5693 86.6548 16.289C88.1959 15.9966 89.7538 15.7833 90.9348 15.8808C90.9599 16.0331 87.6264 16.3865 89.1507 16.3134C90.0386 16.3621 90.6333 16.222 91.2698 16.088C91.898 15.96 92.568 15.8321 93.5647 15.8991C92.6434 15.6798 96.58 14.9609 99.5115 14.7232C99.1486 14.7395 98.8889 14.7415 98.7325 14.7293C98.2802 14.5283 100.466 14.4247 101.664 14.3333C101.664 14.3333 101.555 14.4003 101.237 14.443C108.775 13.8155 116.966 13.5657 125.183 14.0348C125.861 14.0713 126.531 14.114 127.21 14.1688C127.319 14.2054 127.428 14.2419 127.528 14.2785C127.746 14.3516 127.955 14.4125 128.156 14.4795C128.366 14.5466 128.567 14.6075 128.776 14.6684C129.203 14.7842 129.639 14.8817 130.158 14.9609C129.086 14.51 128.625 14.5405 127.771 14.2176C128.265 14.2541 128.768 14.2968 129.27 14.3455C131.733 15.4117 133.383 16.6363 134.957 17.5075C134.957 17.5075 134.84 17.4588 134.664 17.3796C134.48 17.3065 134.237 17.209 134.003 17.1176C133.517 16.9226 133.039 16.7338 133.039 16.7338H133.173C132.972 16.6789 132.679 16.5571 132.361 16.4231C132.034 16.289 131.674 16.1367 131.339 15.9966C130.677 15.7224 130.116 15.5153 130.15 15.7041C131.096 15.9417 131.85 16.2829 132.629 16.685C133.4 17.0993 134.245 17.5258 135.376 17.9949H135.242C135.728 18.2143 136.18 18.4397 136.616 18.6651C137.035 18.9027 137.437 19.1464 137.805 19.3779C138.567 19.847 139.212 20.3405 139.84 20.7914C140.477 21.2361 141.038 21.6748 141.65 22.0404C142.261 22.3998 142.864 22.7227 143.568 22.9603C143.258 22.7532 142.881 22.3876 142.638 22.0891L142.63 22.0586Z" fill="#FFE093"/>
</svg>
