<svg width="31" height="30" viewBox="0 0 31 30" fill="none" xmlns="http://www.w3.org/2000/svg">
<g clip-path="url(#clip0_5023_72)">
<path d="M15.8838 5.78611V5.77393L11.5903 7.96861L15.8838 5.78611Z" fill="#4189DD"/>
<path d="M0.901367 11.25V12.39L3.09538 11.25H0.901367ZM26.1845 4.6875H15.8839V6.89719L13.7236 7.96875H15.8839V11.25H13.7236L15.8839 12.3727V14.5312H15.7941L9.79727 11.5552V14.5312H6.98804V11.5552L1.01093 14.5312H0.901367V20.1562C0.901367 23.0039 2.48062 25.3125 5.58342 25.3125H26.1845C29.2873 25.3125 30.8665 23.0039 30.8665 20.1562V9.84375C30.8665 6.99609 29.2873 4.6875 26.1845 4.6875ZM1.46883 7.1625C1.34381 7.42216 1.24076 7.69185 1.16075 7.96875H3.09538L1.46883 7.1625Z" fill="#2B3990"/>
<path d="M15.8841 4.69219V4.6875H9.79746V7.82766L15.8841 4.69219ZM6.98823 7.82766V4.6875H5.58361C4.35691 4.6875 3.37228 5.05219 2.62549 5.66484L6.98823 7.82766Z" fill="#2B3990"/>
<path d="M15.8839 8.4375V7.96875H13.7236L15.8839 6.89719V5.78625L11.5905 7.96875H10.1681L15.8839 5.04703V4.69219L9.79727 7.82766V4.6875H9.32907V8.4375H15.8839ZM9.32907 14.5312H9.79727V11.5552L15.7941 14.5312H15.8839V13.4625L11.5905 11.25H13.0134L15.8839 12.7359V12.3727L13.7236 11.25H15.8839V10.7812H9.32907V14.5312ZM6.98804 11.5552V14.5312H7.45625V10.7812H0.901367V11.25H3.09538L0.901367 12.39V13.4672L5.22852 11.25H6.65187L0.901367 14.1938V14.5312H1.01093L6.98804 11.5552ZM2.6253 5.66719C2.37902 5.86922 2.15944 6.09844 1.9656 6.35109L5.22852 7.97109H3.80565L1.60742 6.89203C1.55854 6.98158 1.51232 7.07255 1.46883 7.16484L3.09538 7.97109H1.16075C1.11581 8.12391 1.07694 8.28016 1.04417 8.43984H7.45625V4.68984H6.98804V7.83L2.6253 5.66719Z" fill="white"/>
<path d="M7.45625 14.5312H9.32907V10.7812H15.8839V8.59359L9.32907 8.90625V4.6875H7.45625V8.90625L1.00812 8.62922C0.937476 9.0302 0.901758 9.43658 0.901367 9.84375L0.901367 10.7812H7.45625V14.5312Z" fill="#FF0000"/>
<path d="M9.32925 8.90609L15.8841 8.59344V8.43734H9.32925V8.90609ZM1.0083 8.62906L7.45643 8.90609V8.43734H1.04435C1.03124 8.50047 1.01923 8.56437 1.0083 8.62906ZM5.22871 7.96859L1.9625 6.35234C1.83188 6.52303 1.71314 6.70252 1.60714 6.88953L3.80583 7.96859H5.22871ZM1.96531 6.34859L1.9625 6.35234L5.22871 7.96859L1.96531 6.34859ZM11.5907 7.96859L15.8841 5.77391V5.04688L10.1683 7.96859H11.5907ZM11.5907 11.2498L15.8841 13.4445V12.7358L13.0136 11.2498H11.5907Z" fill="#FF0000"/>
<path d="M15.8839 13.4625V13.4447L11.5905 11.25L15.8839 13.4625ZM5.22852 11.25L0.901367 13.478V14.1938L6.65187 11.25H5.22852Z" fill="#FF0000"/>
<path d="M0.901367 13.4671V13.4779L5.22852 11.2499L0.901367 13.4671ZM24.0635 10.0687L23.3706 10.0696L23.1617 9.38428L22.9538 10.0696L22.2595 10.0687L22.8223 10.4957L22.6074 11.1815L23.1627 10.7554L23.7166 11.1815L23.5016 10.4957L24.0635 10.0687Z" fill="#FF0000"/>
<path d="M24.4285 9.94707L23.4617 9.94848L23.1611 8.96973L22.8633 9.94848L21.8955 9.94707L22.6798 10.5443L22.3764 11.5169L23.1634 10.9132L23.9509 11.5169L23.6471 10.5443L24.4285 9.94707ZM23.1629 10.7575L22.6081 11.1832L22.8226 10.4974L22.2598 10.0708L22.9532 10.0718L23.1615 9.38879L23.3704 10.0718L24.0633 10.0708L23.5033 10.4974L23.7164 11.1832L23.1629 10.7575Z" fill="white"/>
<path d="M24.1902 19.7484H23.3984L23.1615 18.9717L22.9209 19.7484H22.1343L22.7743 20.2359L22.5323 21.0192L23.1625 20.5331L23.7945 21.0192L23.5529 20.2359L24.1902 19.7484Z" fill="#FF0000"/>
<path d="M24.607 19.6078L23.5039 19.6102L23.1612 18.4927L22.8208 19.6102L21.7168 19.6078L22.6115 20.2889L22.266 21.3994L23.1631 20.7094L24.0616 21.3994L23.7151 20.2889L24.607 19.6078ZM23.1626 20.5331L22.5301 21.0192L22.774 20.236L22.1326 19.7499L22.9229 19.7508L23.1612 18.9717L23.3995 19.7508L24.1899 19.7499L23.5512 20.236L23.7947 21.0192L23.1626 20.5331Z" fill="white"/>
<path d="M27.6498 13.3582L26.9573 13.3592L26.7508 12.6748L26.5406 13.3592L25.8472 13.3582L26.409 13.7843L26.1936 14.4706L26.7508 14.045L27.3033 14.4706L27.0912 13.7843L27.6498 13.3582Z" fill="#FF0000"/>
<path d="M28.0154 13.2327L27.0485 13.2351L26.748 12.2559L26.4502 13.2351L25.4819 13.2327L26.2662 13.8304L25.9632 14.803L26.7498 14.1993L27.5374 14.803L27.234 13.8304L28.0154 13.2327ZM26.7494 14.0441L26.195 14.4698L26.409 13.7835L25.8467 13.3574L26.5401 13.3584L26.7484 12.6754L26.9568 13.3584L27.6497 13.3574L27.0902 13.7835L27.3033 14.4698L26.7494 14.0441Z" fill="white"/>
<path d="M20.553 13.4018L19.8596 13.4028L19.6531 12.7217L19.4429 13.4028L18.7495 13.4018L19.3114 13.8275L19.0979 14.5146L19.6531 14.0904L20.2056 14.5146L19.9931 13.8275L20.553 13.4018Z" fill="#FF0000"/>
<path d="M20.9177 13.2772L19.9509 13.2795L19.6498 12.3003L19.3525 13.2795L18.3843 13.2772L19.1685 13.8748L18.8656 14.8475L19.6526 14.2437L20.4397 14.8475L20.1363 13.8748L20.9177 13.2772ZM19.6522 14.089L19.0978 14.5147L19.3118 13.8275L18.749 13.4019L19.4424 13.4028L19.6508 12.7203L19.8591 13.4028L20.5521 13.4019L19.9926 13.8275L20.2056 14.5147L19.6522 14.089Z" fill="white"/>
</g>
<defs>
<clipPath id="clip0_5023_72">
<rect width="29.9652" height="30" fill="white" transform="translate(0.901367)"/>
</clipPath>
</defs>
</svg>
