<svg width="32" height="30" viewBox="0 0 32 30" fill="none" xmlns="http://www.w3.org/2000/svg">
<g clip-path="url(#clip0_5023_92)">
<path d="M4.0744 4.1665C3.1707 4.1665 2.30401 4.51769 1.665 5.14281C1.02599 5.76794 0.666992 6.61578 0.666992 7.49984L0.666992 22.4998C0.666992 23.3839 1.02599 24.2317 1.665 24.8569C2.30401 25.482 3.1707 25.8332 4.0744 25.8332H10.8892V4.1665H4.0744Z" fill="#D91023"/>
<path d="M10.8892 4.1665H21.1114V25.8332H10.8892V4.1665Z" fill="#EEEEEE"/>
<path d="M27.9261 4.1665H21.1113V25.8332H27.9261C28.8298 25.8332 29.6965 25.482 30.3355 24.8569C30.9746 24.2317 31.3336 23.3839 31.3336 22.4998V7.49984C31.3336 6.61578 30.9746 5.76794 30.3355 5.14281C29.6965 4.51769 28.8298 4.1665 27.9261 4.1665Z" fill="#D91023"/>
</g>
<defs>
<clipPath id="clip0_5023_92">
<rect width="30.6667" height="30" fill="white" transform="translate(0.666992)"/>
</clipPath>
</defs>
</svg>
