<svg width="30" height="30" viewBox="0 0 30 30" fill="none" xmlns="http://www.w3.org/2000/svg">
<path d="M0 11.7188H30V18.2812H0V11.7188Z" fill="#EC1C24"/>
<path d="M0 10.3125H30V11.7188H0V10.3125ZM0 18.2812H30V19.6875H0V18.2812Z" fill="#E6E7E8"/>
<path d="M25.3125 4.6875H4.6875C1.58109 4.6875 0 6.99609 0 9.84375V10.3125H30V9.84375C30 6.99609 28.4189 4.6875 25.3125 4.6875Z" fill="#25333A"/>
<path d="M0 20.1562C0 23.0039 1.58109 25.3125 4.6875 25.3125H25.3125C28.4189 25.3125 30 23.0039 30 20.1562V19.6875H0V20.1562Z" fill="#137A08"/>
<path d="M10.7043 22.3999L18.0684 10.0446C18.1217 9.4768 18.3123 8.93047 18.6239 8.45275C19.0083 7.86354 19.5525 7.42479 20.189 7.14307C20.1853 7.8401 19.9992 8.51275 19.6134 9.10244C19.3269 9.53906 18.9462 9.90588 18.4992 10.1759L11.0808 22.6235L10.7043 22.3999Z" fill="white"/>
<path d="M20.189 22.3999L12.8254 10.0446C12.7721 9.4768 12.5815 8.93047 12.27 8.45275C11.8847 7.86354 11.3414 7.42479 10.7043 7.14307C10.7086 7.8401 10.8918 8.51275 11.2795 9.10244C11.5667 9.53861 11.9475 9.9053 12.3942 10.1759L19.8112 22.624L20.189 22.3999Z" fill="white"/>
<path d="M15.4467 8.42969C13.5529 9.52281 12.2339 12.0002 12.2339 14.883C12.2339 17.7658 13.5553 20.2417 15.4467 21.3381C17.3358 20.2413 18.6595 17.7658 18.6595 14.883C18.6595 12.0006 17.3381 9.52281 15.4467 8.42969Z" fill="#D9271E"/>
<path d="M12.8264 18.101C13.207 17.1363 13.4203 16.0418 13.4203 14.883C13.4203 13.7234 13.207 12.6302 12.8264 11.666C12.449 12.6307 12.2334 13.7238 12.2334 14.883C12.2339 16.0423 12.4495 17.1368 12.8264 18.101ZM18.067 18.101C18.4443 17.1363 18.6595 16.0418 18.6595 14.883C18.6595 13.7234 18.4443 12.6302 18.067 11.666C17.6864 12.6307 17.4731 13.7238 17.4731 14.883C17.4731 16.0423 17.6864 17.1368 18.067 18.101Z" fill="#25333A"/>
<path d="M15.4468 15.9506C15.9444 15.9506 16.3478 15.4725 16.3478 14.8828C16.3478 14.293 15.9444 13.8149 15.4468 13.8149C14.9493 13.8149 14.5459 14.293 14.5459 14.8828C14.5459 15.4725 14.9493 15.9506 15.4468 15.9506Z" fill="white"/>
<path d="M15.2293 16.3315C14.8243 16.9273 14.5674 17.7734 14.5674 18.7142C14.5674 19.6564 14.8243 20.5011 15.2293 21.0964V16.3315ZM15.6329 21.0982C16.0379 20.5025 16.2933 19.6564 16.2933 18.7161C16.2933 17.7739 16.0379 16.9287 15.6329 16.3334V21.0982ZM15.2447 8.70215C14.8379 9.29746 14.5843 10.144 14.5843 11.082C14.5843 12.0242 14.8379 12.8712 15.2447 13.467V8.70215ZM15.6488 13.467C16.0557 12.8698 16.3093 12.0228 16.3093 11.082C16.3093 10.1445 16.0557 9.29699 15.6488 8.70215V13.467Z" fill="white"/>
</svg>
